<?xml version="1.0" encoding="UTF-8"?>
<svg id="Layer_1" data-name="Layer 1" xmlns="http://www.w3.org/2000/svg" xmlns:xlink="http://www.w3.org/1999/xlink" viewBox="0 0 800 800">
  <defs>
    <style>
      .cls-1 {
        fill: none;
        stroke: #49494a;
        stroke-miterlimit: 10;
        stroke-width: 9px;
      }

      .cls-2 {
        fill: url(#linear-gradient);
      }

      .cls-2, .cls-3, .cls-4 {
        stroke-width: 0px;
      }

      .cls-3 {
        fill: #393939;
      }

      .cls-4 {
        fill: #3a3a3a;
      }
    </style>
    <linearGradient id="linear-gradient" x1="426.89" y1="146.04" x2="682.96" y2="695.18" gradientUnits="userSpaceOnUse">
      <stop offset="0" stop-color="#e8d959"/>
      <stop offset=".63" stop-color="#f3c82a"/>
      <stop offset="1" stop-color="#fabe0e"/>
    </linearGradient>
  </defs>
  <path class="cls-2" d="M418.53,210.05c-13.5,21.98-56.39,101.16-44.73,203.33.06.51.1,1.03.12,1.55.32,10.17,6.21,133.94,103.22,235.8.61.64,1.24,1.23,1.91,1.8,5.29,4.46,29.69,24.45,52.64,34.12,1.18.5,2.35.86,3.6,1.14,7.31,1.67,34.21,7.58,49.15,7.54,5.19-.01,10.16,1.83,14.09,5.22,7.47,6.43,19.34,15.65,25.8,15.52,0,0,18.28,8,29.57-17.14,0,0,19.05-40.05,27.75-43.78,0,0,75.79-61.02,66.31-175.65,0,0-1.63-138.75-71.65-222.96-.79-.95-1.49-1.93-2.09-3.01-5.18-9.34-36.52-61.02-109.29-88.56-3.17-1.2-6.05-3.09-8.34-5.59-9.36-10.16-37.37-37.17-66.37-31.83,0,0-38.14-5.71-57.75,24.98,0,0-13.12,19.13-10.99,44.44.39,4.58-.57,9.17-2.97,13.09Z"/>
  <circle class="cls-1" cx="670.61" cy="331.89" r="56.74"/>
  <path class="cls-3" d="M21.21,531.59c51.7-34.09,106.23-63.65,162.59-89.22,49.34-21.95,100.48-40.69,153.51-51.36,7.55-1.62,15.26-2.51,23.05-2.53-3.66,1.44-7.35,2.54-11.06,3.53-3.71.94-7.41,1.99-11.14,2.86-81.81,20.32-158.14,58.33-230.63,100.62-26.25,15.48-52.21,31.8-77.18,49.22,0,0-9.15-13.13-9.15-13.13h0Z"/>
  <path class="cls-4" d="M361.77,61.65l-77.03,98.97c-.74.96-.5,2.34.52,2.98l30.19,19.06c.86.54,1.99.38,2.66-.38l32.52-36.69s.06-.06.09-.1l25.77-25.6c.79-.79,2.08-.81,2.89-.04l10.27,9.72c.3.29.51.66.6,1.07l19.13,91.47c.23,1.09,1.29,1.8,2.39,1.6l171.4-30.91c.72-.13,1.46.13,1.93.68l138.95,160.46c.55.64,1.44.87,2.24.6l11.79-4.07c1.2-.42,1.75-1.8,1.15-2.91l-89.75-166.41c-.05-.09-.1-.17-.16-.24l-108.7-147.07c-.46-.62-1.22-.93-1.99-.81l-155.25,24.63-20.3,3.22c-.52.08-.99.36-1.31.77Z"/>
  <path class="cls-3" d="M61.19,593.67c47.35-31.16,97.31-58.13,148.93-81.45,45.19-20.01,92.02-37.07,140.58-46.75,6.91-1.47,13.97-2.25,21.12-2.15-6.61,2.68-13.42,4.26-20.27,6.02-6.82,1.56-13.55,3.55-20.29,5.39-67.11,20.01-130.23,51.57-190.42,86.99-23.97,14.18-47.7,29.14-70.5,45.08,0,0-9.15-13.13-9.15-13.13h0Z"/>
  <path class="cls-3" d="M110.85,656.99c37.05-24.21,76.14-45.04,116.54-63.04,35.34-15.42,71.97-28.48,109.9-35.81,5.39-1.11,10.93-1.64,16.55-1.25-5.07,2.39-10.35,3.71-15.69,5.11-5.3,1.25-10.52,2.83-15.76,4.29-52.1,15.91-101.05,40.75-147.74,68.54-14,8.36-27.81,17.03-41.33,26.13-4.48,3-9.03,6.09-13.31,9.14l-9.15-13.13h0Z"/>
</svg>